name C:\Users\u0101727\Documents\MyRepositories\upper-imu-dc\Results\main_tracking\Case_45\FLX01_angularVelocities_bodyFrame.mot
datacolumns 4
datarows 70
range 3.50600000 3.92000000
endheader 
time	radius_imu_x	radius_imu_y	radius_imu_z	
          3.50600000	          0.02102873	          0.08362633	          0.08344398	
          3.51200000	          0.02419430	          0.08301379	          0.08224503	
          3.51800000	          0.02741482	          0.08243012	          0.08074813	
          3.52400000	          0.03065334	          0.08190481	          0.07897729	
          3.53000000	          0.03387236	          0.08146800	          0.07695814	
          3.53600000	          0.03703472	          0.08114877	          0.07471764	
          3.54200000	          0.04010464	          0.08097239	          0.07228376	
          3.54800000	          0.04304874	          0.08095783	          0.06968525	
          3.55400000	          0.04583698	          0.08111604	          0.06695146	
          3.56000000	          0.04844354	          0.08144802	          0.06411214	
          3.56600000	          0.05084761	          0.08194371	          0.06119736	
          3.57200000	          0.05303395	          0.08258126	          0.05823740	
          3.57800000	          0.05499332	          0.08332682	          0.05526266	
          3.58400000	          0.05672271	          0.08413503	          0.05230365	
          3.59000000	          0.05822528	          0.08495024	          0.04939091	
          3.59600000	          0.05951019	          0.08570779	          0.04655500	
          3.60200000	          0.06059221	          0.08633643	          0.04382651	
          3.60800000	          0.06149107	          0.08676098	          0.04123600	
          3.61400000	          0.06223088	          0.08690458	          0.03881403	
          3.62000000	          0.06283935	          0.08669160	          0.03659117	
          3.62600000	          0.06334696	          0.08604965	          0.03459797	
          3.63200000	          0.06378610	          0.08491192	          0.03286490	
          3.63800000	          0.06419019	          0.08321940	          0.03142241	
          3.64400000	          0.06459292	          0.08092206	          0.03030088	
          3.65000000	          0.06502742	          0.07797980	          0.02953052	
          3.65600000	          0.06552555	          0.07436298	          0.02914132	
          3.66200000	          0.06611725	          0.07005266	          0.02916291	
          3.66800000	          0.06682997	          0.06504054	          0.02962436	
          3.67400000	          0.06768825	          0.05932888	          0.03055403	
          3.68000000	          0.06871343	          0.05292999	          0.03197922	
          3.68600000	          0.06992347	          0.04586603	          0.03392590	
          3.69200000	          0.07133292	          0.03816824	          0.03641825	
          3.69800000	          0.07295291	          0.02987618	          0.03947823	
          3.70400000	          0.07479132	          0.02103715	          0.04312520	
          3.71000000	          0.07685293	          0.01170526	          0.04737554	
          3.71600000	          0.07913953	          0.00194095	          0.05224235	
          3.72200000	          0.08165014	         -0.00818992	          0.05773518	
          3.72800000	          0.08438112	         -0.01861709	          0.06385995	
          3.73400000	          0.08732633	         -0.02926653	          0.07061888	
          3.74000000	          0.09047718	         -0.04006191	          0.07801050	
          3.74600000	          0.09382271	         -0.05092560	          0.08602972	
          3.75200000	          0.09734969	         -0.06178075	          0.09466810	
          3.75800000	          0.10104282	         -0.07255343	          0.10391406	
          3.76400000	          0.10488476	         -0.08317418	          0.11375317	
          3.77000000	          0.10885637	         -0.09357985	          0.12416858	
          3.77600000	          0.11293694	         -0.10371466	          0.13514132	
          3.78200000	          0.11710452	         -0.11353100	          0.14665078	
          3.78800000	          0.12133632	         -0.12298977	          0.15867519	
          3.79400000	          0.12560896	         -0.13206000	          0.17119200	
          3.80000000	          0.12989892	         -0.14071844	          0.18417828	
          3.80600000	          0.13418277	         -0.14894888	          0.19761111	
          3.81200000	          0.13843748	         -0.15674170	          0.21146790	
          3.81800000	          0.14264069	         -0.16409344	          0.22572682	
          3.82400000	          0.14677102	         -0.17100665	          0.24036699	
          3.83000000	          0.15080826	         -0.17748997	          0.25536869	
          3.83600000	          0.15473377	         -0.18355819	          0.27071356	
          3.84200000	          0.15853075	         -0.18923235	          0.28638463	
          3.84800000	          0.16218448	         -0.19453952	          0.30236634	
          3.85400000	          0.16568269	         -0.19951230	          0.31864453	
          3.86000000	          0.16901575	         -0.20418783	          0.33520632	
          3.86600000	          0.17217691	         -0.20860691	          0.35203998	
          3.87200000	          0.17516247	         -0.21281242	          0.36913480	
          3.87800000	          0.17797184	         -0.21684796	          0.38648084	
          3.88400000	          0.18060777	         -0.22075664	          0.40406879	
          3.89000000	          0.18307636	         -0.22457979	          0.42188975	
          3.89600000	          0.18538726	         -0.22835610	          0.43993506	
          3.90200000	          0.18755363	         -0.23212095	          0.45819626	
          3.90800000	          0.18959215	         -0.23590606	          0.47666504	
          3.91400000	          0.19152300	         -0.23973975	          0.49533330	
          3.92000000	          0.19336990	         -0.24364758	          0.51419319	
